<?xml version="1.0" encoding="utf-8"?>
<!-- Generator: Adobe Illustrator 23.0.4, SVG Export Plug-In . SVG Version: 6.00 Build 0)  -->
<svg version="1.1" xmlns="http://www.w3.org/2000/svg" xmlns:xlink="http://www.w3.org/1999/xlink" x="0px" y="0px"
	 viewBox="0 0 547.72821 148.77472" style="enable-background:new 0 0 547.72821 148.77472;" xml:space="preserve">
<style type="text/css">
	.st0{fill:none;}
</style>
<g id="Layer_1">
	<g>
		<rect class="st0" width="547.72821" height="148.77472"/>
		<g>
			<g>
				<path d="M64.54761,71.07601c-7.35566,0-12.31502,5.78526-12.31501,13.22231c0,7.43571,4.95937,13.22364,12.31502,13.22363
					c7.35566,0,12.31503-5.78793,12.31502-13.22364C76.86263,76.86127,71.90327,71.076,64.54761,71.07601 M62.89448,62.81174
					c5.9507,0,10.91007,3.05807,13.22364,6.36431l-0.00001-5.53842l9.09017,0l0.00002,41.3187h-6.17472
					c-1.61015,0-2.91544-1.30528-2.91544-2.91544l-0.00001-2.61897c-2.31356,3.30624-7.27293,6.36165-13.22363,6.36166
					c-11.31968,0-19.91485-9.66788-19.91485-21.48524S51.5748,62.81174,62.89448,62.81174"/>
				<path d="M95.53049,63.63802l9.09283,0v5.61981c2.47634-4.13213,7.18887-6.44571,12.56052-6.44571
					c9.58517,0,15.78271,6.77659,15.78272,17.27037v24.87421h-6.17471c-1.61016,0-2.91545-1.30529-2.91545-2.91544L123.8764,81.5715
					c0-6.52976-3.30625-10.49512-8.59383-10.49511c-6.0321,0-10.65923,4.70986-10.65923,13.55053l0.00001,20.32979l-6.17739,0.00001
					c-1.61015,0-2.91544-1.30529-2.91544-2.91544L95.53049,63.63802z"/>
				<path d="M161.72874,71.07597c-7.353,0.00001-12.31236,5.78526-12.31236,13.22231c0,7.43571,4.95938,13.22363,12.31236,13.22363
					c7.353-0.00001,12.31235-5.78793,12.31235-13.22365C174.04109,76.86122,169.08173,71.07597,161.72874,71.07597
					 M160.07561,62.8117c5.95071,0,10.90874,3.05807,13.22231,6.36432l-0.00002-26.19644l9.08885,0l0.00002,61.97671
					l-6.17339,0.00001c-1.61015,0-2.91545-1.30529-2.91545-2.91545v-2.61897c-2.31357,3.30624-7.27159,6.36166-13.22229,6.36166
					c-11.32236,0.00001-19.91618-9.66788-19.9162-21.48524C140.15944,72.48093,148.75327,62.8117,160.07561,62.8117"/>
				<path d="M192.71162,63.63797l9.09016,0v7.35566c1.56908-4.7112,6.19754-7.76927,10.91008-7.76928
					c1.1541,0,2.31357,0.08406,3.55173,0.33223v9.33833c-1.57039-0.49767-2.8913-0.74583-4.5444-0.74583
					c-5.20621,0-9.9174,4.3803-9.91739,12.64458v20.16302h-6.17471c-1.61015,0-2.91545-1.30529-2.91545-2.91544L192.71162,63.63797z
					"/>
				<path d="M240.77559,97.35577c7.27159-0.00001,12.39641-5.70388,12.39639-13.05686c0-7.35432-5.12482-13.05686-12.39641-13.05685
					c-7.35434,0-12.4778,5.70254-12.4778,13.05686C228.29778,91.6519,233.42125,97.35577,240.77559,97.35577 M240.77559,105.78281
					c-12.23097,0.00001-21.6507-9.50377-21.65071-21.48389c0-11.9828,9.41971-21.48792,21.6507-21.48792
					c12.23094,0,21.65067,9.5051,21.65067,21.4879C262.42627,96.27902,253.00655,105.78281,240.77559,105.78281"/>
				<path d="M269.79565,63.63768l9.08749,0l0.00003,41.3187h-6.17206c-1.61017,0-2.91547-1.30528-2.91547-2.91544V63.63768z
					 M274.3374,54.63157c-3.30627,0-6.11349-2.72585-6.11349-6.11615c0-3.30624,2.80722-6.0321,6.11349-6.0321
					c3.3876,0,6.03476,2.72585,6.03476,6.03209C280.37216,51.90571,277.72501,54.63156,274.3374,54.63157"/>
				<path d="M307.92368,71.0759c-7.353,0-12.31238,5.78526-12.31238,13.22231c0,7.43571,4.95938,13.22364,12.31238,13.22363
					c7.35565,0,12.315-5.78793,12.315-13.22364C320.23868,76.86115,315.27933,71.0759,307.92368,71.0759 M306.27054,62.81163
					c5.95068,0,10.91006,3.05807,13.22363,6.36431V42.9795l9.09018,0l0.00003,61.97672h-6.17474
					c-1.61014,0-2.91544-1.30529-2.91544-2.91544v-2.61898c-2.3136,3.30624-7.27295,6.36166-13.22363,6.36166
					c-11.3197,0-19.91486-9.66788-19.91489-21.48524C286.35568,72.48087,294.95087,62.81163,306.27054,62.81163"/>
			</g>
			<g>
				<path d="M373.58798,97.97977c-3.07489,4.56962-9.05811,7.81106-15.37372,7.81106
					c-11.71729,0-20.69211-9.72289-20.69211-21.60675c0-11.88242,8.97482-21.60532,20.69211-21.60532
					c6.31561,0,12.29883,3.24002,15.37372,7.81105v-6.9797h5.81665v41.54935h-5.81665V97.97977z M343.50537,84.18407
					c0,8.97553,6.39886,16.20435,15.29041,16.20435s15.29044-7.22882,15.29044-16.20435c0-8.9741-6.3989-16.20435-15.29044-16.20435
					S343.50537,75.20998,343.50537,84.18407z"/>
				<path d="M419.51831,97.97977c-2.74246,5.06786-7.81177,7.81106-13.21274,7.81106c-8.80896,0-15.20786-6.56544-15.20786-16.3709
					V63.41011h5.81735v25.17845c0,7.06369,4.15466,11.79987,10.13788,11.79987c7.06369,0,12.46536-6.39747,12.46536-16.28692
					v-20.6914h5.81738v41.54935h-5.81738V97.97977z"/>
				<path d="M440.62753,68.89365h-8.89154v-5.48354h8.89154V51.85794h5.81738v11.55217h12.13226v5.48354h-12.13226v24.01683
					c0,5.06928,2.2435,7.06226,6.89713,7.06226c1.66199,0,3.90552-0.33169,5.23514-0.91393v5.23585
					c-1.91113,0.74737-3.90555,1.08047-6.14908,1.08047c-7.06369,0-11.80057-4.07279-11.80057-11.96642V68.89365z"/>
				<path d="M504.75165,84.18407c0.24985,11.7173-9.38977,21.85587-21.6886,21.60675
					c-12.2988,0.24912-21.93842-9.88945-21.6893-21.60675c-0.24911-11.71729,9.3905-21.85444,21.6893-21.60532
					C495.36188,62.32963,505.0015,72.46678,504.75165,84.18407z M467.35696,84.18407c0,8.97553,6.31561,16.20435,15.70609,16.20435
					c9.3905,0,15.70541-7.22882,15.70541-16.20435c0-8.9741-6.31491-16.20435-15.70541-16.20435
					C473.67258,67.97973,467.35696,75.20998,467.35696,84.18407z"/>
			</g>
		</g>
	</g>
</g>
<g id="Layer_2">
</g>
</svg>
