<svg xmlns="http://www.w3.org/2000/svg" xmlns:svg="http://www.w3.org/2000/svg" id="svg8" width="57" height="15" version="1.1" viewBox="0 0 15.081 3.969"><metadata id="metadata5"/><g id="layer1" transform="translate(1.6022506,-1.1797707)"><g id="text12" aria-label="iOS" style="font-size:5.29167px;line-height:1.25;font-family:'SF Pro Text';-inkscape-font-specification:'SF Pro Text';stroke-width:.264583"><path style="font-style:normal;font-variant:normal;font-weight:400;font-stretch:normal;font-size:5.29167px;font-family:'SF Pro Display';-inkscape-font-specification:'SF Pro Display';stroke-width:.264583" id="path235" d="m 4.4749161,1.8864462 c 0.1576133,0 0.2816368,-0.1266074 0.2816368,-0.2816367 0,-0.1576133 -0.1240235,-0.2816368 -0.2816368,-0.2816368 -0.1550293,0 -0.2816367,0.1240235 -0.2816367,0.2816368 0,0.1550293 0.1266074,0.2816367 0.2816367,0.2816367 z M 4.2501235,5.0283751 H 4.6997088 V 2.3411991 H 4.2501235 Z"/><path style="font-style:normal;font-variant:normal;font-weight:400;font-stretch:normal;font-size:5.29167px;font-family:'SF Pro Display';-inkscape-font-specification:'SF Pro Display';stroke-width:.264583" id="path237" d="m 6.9631378,5.0903869 c 1.0567837,0 1.7156586,-0.7415572 1.7156586,-1.9249483 v -0.00517 c 0,-1.1808072 -0.6614587,-1.9223644 -1.7156586,-1.9223644 -1.0567836,0 -1.7208262,0.7415572 -1.7208262,1.9223644 v 0.00517 c 0,1.1833911 0.6614587,1.9249483 1.7208262,1.9249483 z m 0,-0.4289146 c -0.7648116,0 -1.2454027,-0.5787764 -1.2454027,-1.4960337 v -0.00517 c 0,-0.9172572 0.4831749,-1.4934498 1.2454027,-1.4934498 0.759644,0 1.2402352,0.5787764 1.2402352,1.4934498 v 0.00517 c 0,0.9095058 -0.4728397,1.4960337 -1.2402352,1.4960337 z"/><path style="font-style:normal;font-variant:normal;font-weight:400;font-stretch:normal;font-size:5.29167px;font-family:'SF Pro Display';-inkscape-font-specification:'SF Pro Display';stroke-width:.264583" id="path239" d="m 10.482305,5.0903869 c 0.852662,0 1.377178,-0.4185793 1.377178,-1.0800381 v -0.00258 c 0,-0.5684411 -0.320394,-0.8784999 -1.085206,-1.0464484 L 10.360865,2.8708828 C 9.8751066,2.7649461 9.650314,2.5737431 9.650314,2.268852 v -0.00258 c 0,-0.3591514 0.3255617,-0.5968632 0.82424,-0.599447 0.472839,0 0.790649,0.2247926 0.847494,0.6046146 l 0.0052,0.036174 h 0.465088 l -0.0026,-0.038757 c -0.04134,-0.6097823 -0.573609,-1.0309454 -1.302247,-1.0309454 -0.7673958,0 -1.3099987,0.4289146 -1.3125825,1.0412807 v 0.00258 c 0,0.5451867 0.3410647,0.8733323 1.0697025,1.0335293 l 0.413412,0.090434 c 0.511597,0.1136882 0.726054,0.2971397 0.726054,0.6252852 v 0.00258 c 0,0.3849897 -0.338481,0.6278691 -0.875916,0.6278691 -0.5400188,0 -0.901754,-0.2299603 -0.9560143,-0.6046147 l -0.00517,-0.036173 H 9.0818729 l 0.00258,0.036173 c 0.046509,0.6382044 0.5916955,1.0335293 1.3978481,1.0335293 z"/></g></g><path id="path260" d="M 3.4104948,3.4398948 C 3.2494033,3.6805619 3.0786071,3.9154066 2.8185312,3.9192878 2.5584553,3.9250778 2.4749981,3.7659599 2.1799866,3.7659599 c -0.296952,0 -0.3881732,0.1494467 -0.6346624,0.1591508 C 1.2910703,3.9348107 1.098925,3.6689166 0.93589253,3.4340719 0.60400423,2.9546781 0.34975111,2.0715848 0.69134353,1.4776803 0.86019833,1.1826686 1.1629732,0.99634562 1.4909795,0.99052352 c 0.2484309,-0.00389 0.4852166,0.16885478 0.6385444,0.16885478 0.1513878,0 0.4386357,-0.20767238 0.7394698,-0.17661808 0.1261562,0.0058 0.4793936,0.050461 0.7064746,0.38429118 -0.017468,0.011641 -0.4211675,0.2484302 -0.4172858,0.739469 0.00582,0.5861414 0.5143292,0.7821685 0.5201519,0.7841095 -0.00582,0.013586 -0.081516,0.2794847 -0.2678396,0.5492649 M 2.3022611,0.33451089 c 0.1416832,-0.1610916 0.3765278,-0.2833657 0.5706143,-0.2911297 0.025231,0.2270816 -0.065989,0.4561034 -0.2018499,0.619136 C 2.5371058,0.82749082 2.3158472,0.95558792 2.0984703,0.93811972 2.0693553,0.71492089 2.1780453,0.48201709 2.3022611,0.33451089 Z" style="stroke-width:.194086"/></svg>