<?xml version="1.0" encoding="UTF-8" standalone="no"?>
<svg
   xmlns:dc="http://purl.org/dc/elements/1.1/"
   xmlns:cc="http://creativecommons.org/ns#"
   xmlns:rdf="http://www.w3.org/1999/02/22-rdf-syntax-ns#"
   xmlns:svg="http://www.w3.org/2000/svg"
   xmlns="http://www.w3.org/2000/svg"
   xmlns:sodipodi="http://sodipodi.sourceforge.net/DTD/sodipodi-0.dtd"
   xmlns:inkscape="http://www.inkscape.org/namespaces/inkscape"
   width="89"
   height="15"
   viewBox="0 0 23.547914 3.9687498"
   version="1.1"
   id="svg8"
   inkscape:version="1.0.1 (c497b03c, 2020-09-10)"
   sodipodi:docname="macOS.svg">
  <defs
     id="defs2" />
  <sodipodi:namedview
     id="base"
     pagecolor="#ffffff"
     bordercolor="#666666"
     borderopacity="1.0"
     inkscape:pageopacity="0.0"
     inkscape:pageshadow="2"
     inkscape:zoom="4.6910909"
     inkscape:cx="3.5215862"
     inkscape:cy="24.605461"
     inkscape:document-units="mm"
     inkscape:current-layer="layer1"
     inkscape:document-rotation="0"
     showgrid="false"
     inkscape:snap-page="false"
     units="px"
     fit-margin-top="0"
     fit-margin-left="2"
     fit-margin-right="6"
     fit-margin-bottom="0"
     inkscape:window-width="1680"
     inkscape:window-height="943"
     inkscape:window-x="0"
     inkscape:window-y="25"
     inkscape:window-maximized="1" />
  <metadata
     id="metadata5">
    <rdf:RDF>
      <cc:Work
         rdf:about="">
        <dc:format>image/svg+xml</dc:format>
        <dc:type
           rdf:resource="http://purl.org/dc/dcmitype/StillImage" />
        <dc:title></dc:title>
      </cc:Work>
    </rdf:RDF>
  </metadata>
  <g
     inkscape:label="Layer 1"
     inkscape:groupmode="layer"
     id="layer1"
     transform="translate(0.71094476,-1.2357572)">
    <g
       aria-label="macOS"
       id="text12"
       style="font-size:5.29167px;line-height:1.25;font-family:'SF Pro Text';-inkscape-font-specification:'SF Pro Text';stroke-width:0.264583"
       transform="translate(0.71199372,0.1301434)">
      <path
         d="M 4.3725918,4.9542184 H 4.8221771 V 3.2695657 c 0,-0.3746544 0.2583823,-0.6562911 0.6149499,-0.6562911 0.3333132,0 0.5503543,0.2144573 0.5503543,0.540019 V 4.9542184 H 6.4370665 V 3.2463113 c 0,-0.3669029 0.2506309,-0.6330367 0.6071985,-0.6330367 0.3539838,0 0.5581058,0.219625 0.5581058,0.5891117 V 4.9542184 H 8.051956 v -1.855185 c 0,-0.5348514 -0.3436485,-0.8836676 -0.875916,-0.8836676 -0.3772382,0 -0.6924646,0.1937868 -0.8423264,0.5167647 H 6.3233783 C 6.2071063,2.4039849 5.9358048,2.2153658 5.568902,2.2153658 c -0.3462323,0 -0.61495,0.1782838 -0.7363896,0.4444176 H 4.8221771 V 2.2670423 H 4.3725918 Z"
         style="font-style:normal;font-variant:normal;font-weight:normal;font-stretch:normal;font-size:5.29167px;font-family:'SF Pro Display';-inkscape-font-specification:'SF Pro Display';stroke-width:0.264583"
         id="path162" />
      <path
         d="m 9.4058792,5.0058949 c 0.3591514,0 0.6821298,-0.1937868 0.8397428,-0.4883426 h 0.01034 v 0.4366661 h 0.449585 V 3.0964495 c 0,-0.5374352 -0.397909,-0.8810837 -1.033529,-0.8810837 -0.6330367,0 -1.0180264,0.3565676 -1.0567837,0.7984014 l -0.00258,0.028422 h 0.4340823 l 0.00517,-0.023254 C 9.1035719,2.7786393 9.320613,2.6132746 9.6668453,2.6132746 c 0.3746547,0 0.5891117,0.1989544 0.5891117,0.5270999 V 3.3651671 L 9.4859777,3.4090921 C 8.868444,3.4452657 8.5118764,3.73207 8.5118764,4.1894067 v 0.00517 c 0,0.4883426 0.3591514,0.8113205 0.8940028,0.8113205 z M 8.9717969,4.1945744 v -0.00517 c 0,-0.2506308 0.2067059,-0.4108279 0.5658573,-0.4314984 L 10.255957,3.713981 v 0.2196249 c 0,0.3901573 -0.3255617,0.6821294 -0.7493087,0.6821294 -0.3229779,0 -0.5348514,-0.1627809 -0.5348514,-0.4211632 z"
         style="font-style:normal;font-variant:normal;font-weight:normal;font-stretch:normal;font-size:5.29167px;font-family:'SF Pro Display';-inkscape-font-specification:'SF Pro Display';stroke-width:0.264583"
         id="path164" />
      <path
         d="m 12.390195,5.0058949 c 0.607199,0 1.049032,-0.395325 1.121379,-0.906922 l 0.0026,-0.018087 H 13.07234 l -0.0052,0.02067 c -0.07493,0.2997235 -0.310059,0.5064294 -0.676962,0.5064294 -0.465088,0 -0.785482,-0.3694867 -0.785482,-0.9947719 v -0.00258 c 0,-0.6097822 0.312642,-0.9973557 0.780314,-0.9973557 0.395325,0 0.612367,0.2377117 0.679546,0.5064293 l 0.0052,0.020671 h 0.43925 l -0.0026,-0.020671 c -0.05684,-0.4599205 -0.452169,-0.9043381 -1.12138,-0.9043381 -0.746724,0 -1.240235,0.5426029 -1.240235,1.3900969 v 0.00258 c 0,0.8552455 0.483175,1.3978484 1.245403,1.3978484 z"
         style="font-style:normal;font-variant:normal;font-weight:normal;font-stretch:normal;font-size:5.29167px;font-family:'SF Pro Display';-inkscape-font-specification:'SF Pro Display';stroke-width:0.264583"
         id="path166" />
      <path
         d="m 15.578633,5.0162301 c 1.056783,0 1.715658,-0.7415572 1.715658,-1.9249482 v -0.00517 c 0,-1.1808071 -0.661459,-1.9223644 -1.715658,-1.9223644 -1.056784,0 -1.720827,0.7415573 -1.720827,1.9223644 v 0.00517 c 0,1.183391 0.661459,1.9249482 1.720827,1.9249482 z m 0,-0.4289146 c -0.764812,0 -1.245403,-0.5787764 -1.245403,-1.4960336 v -0.00517 c 0,-0.9172572 0.483175,-1.4934498 1.245403,-1.4934498 0.759644,0 1.240235,0.5787764 1.240235,1.4934498 v 0.00517 c 0,0.9095057 -0.47284,1.4960336 -1.240235,1.4960336 z"
         style="font-style:normal;font-variant:normal;font-weight:normal;font-stretch:normal;font-size:5.29167px;font-family:'SF Pro Display';-inkscape-font-specification:'SF Pro Display';stroke-width:0.264583"
         id="path168" />
      <path
         d="m 19.0978,5.0162301 c 0.852662,0 1.377178,-0.4185793 1.377178,-1.080038 v -0.00258 c 0,-0.5684411 -0.320394,-0.8784998 -1.085206,-1.0464483 L 18.976361,2.796726 C 18.490602,2.6907893 18.265809,2.4995864 18.265809,2.1946952 v -0.00258 c 0,-0.3591514 0.325562,-0.5968631 0.82424,-0.599447 0.472839,0 0.79065,0.2247927 0.847494,0.6046147 l 0.0052,0.036174 h 0.465089 l -0.0026,-0.038757 C 20.363874,1.584913 19.831606,1.1637498 19.102968,1.1637498 c -0.767396,0 -1.309998,0.4289146 -1.312582,1.0412807 v 0.00258 c 0,0.5451866 0.341064,0.8733322 1.069703,1.0335292 l 0.413411,0.090434 c 0.511597,0.1136883 0.726055,0.2971397 0.726055,0.6252852 v 0.00258 c 0,0.3849896 -0.338481,0.627869 -0.875917,0.627869 -0.540019,0 -0.901754,-0.2299603 -0.956014,-0.6046146 l -0.0052,-0.036174 h -0.465088 l 0.0026,0.036174 c 0.04651,0.6382043 0.591695,1.0335292 1.397848,1.0335292 z"
         style="font-style:normal;font-variant:normal;font-weight:normal;font-stretch:normal;font-size:5.29167px;font-family:'SF Pro Display';-inkscape-font-specification:'SF Pro Display';stroke-width:0.264583"
         id="path170" />
    </g>
    <text
       xml:space="preserve"
       style="font-size:10.5833px;line-height:1.25;font-family:'SF Pro Text';-inkscape-font-specification:'SF Pro Text';stroke-width:0.264583"
       x="-12.649808"
       y="41.847057"
       id="text244"><tspan
         sodipodi:role="line"
         id="tspan242"
         x="-12.649808"
         y="41.847057"
         style="stroke-width:0.264583" /></text>
    <path
       d="M 2.6995504,4.6756523 C 2.5384586,4.9163193 2.3676625,5.151164 2.1075866,5.1550453 1.8475107,5.1608403 1.7640535,5.0017175 1.469042,5.0017175 1.17209,5.0017175 1.0808688,5.151164 0.83437958,5.1608682 0.58012568,5.1705682 0.38798038,4.9046741 0.22494781,4.6698293 -0.10694049,4.1904356 -0.36119361,3.3073422 -0.01960119,2.7134376 0.14925371,2.4184259 0.45202858,2.2321029 0.78003488,2.2262807 1.0284658,2.2223907 1.2652515,2.3951356 1.4185792,2.3951356 c 0.1513879,0 0.4386358,-0.2076725 0.7394699,-0.1766181 0.1261562,0.0058 0.4793936,0.050461 0.7064747,0.3842912 -0.017468,0.011641 -0.4211676,0.2484302 -0.4172859,0.7394691 0.00582,0.5861414 0.5143292,0.7821686 0.5201518,0.7841096 -0.00582,0.013585 -0.081516,0.2794845 -0.2678393,0.5492649 M 1.5913165,1.5702681 C 1.7329997,1.4091765 1.9678443,1.2869024 2.1619308,1.2791384 2.1871621,1.50622 2.0959416,1.7352418 1.9600809,1.8982744 1.8261612,2.063248 1.6049026,2.1913451 1.3875257,2.173877 1.3584109,1.9506781 1.467101,1.7177743 1.5913165,1.5702681 Z"
       id="path260"
       style="stroke-width:0.194086" />
  </g>
</svg>
